<?xml version="1.0" encoding="UTF-8"?>
<!DOCTYPE svg PUBLIC "-//W3C//DTD SVG 1.1//EN" "http://www.w3.org/Graphics/SVG/1.1/DTD/svg11.dtd">
<svg xmlns="http://www.w3.org/2000/svg" version="1.1" width="500px" height="500px" style="shape-rendering:geometricPrecision; text-rendering:geometricPrecision; image-rendering:optimizeQuality; fill-rule:evenodd; clip-rule:evenodd" xmlns:xlink="http://www.w3.org/1999/xlink">
<g><path style="opacity:1" fill="#fefbf6" d="M -0.5,-0.5 C 166.167,-0.5 332.833,-0.5 499.5,-0.5C 499.5,166.167 499.5,332.833 499.5,499.5C 332.833,499.5 166.167,499.5 -0.5,499.5C -0.5,332.833 -0.5,166.167 -0.5,-0.5 Z"/></g>
<g><path style="opacity:1" fill="#fe7038" d="M 282.5,67.5 C 291.456,75.7495 296.456,86.0828 297.5,98.5C 297.5,102.5 297.5,106.5 297.5,110.5C 288.635,108.368 279.635,107.368 270.5,107.5C 280.426,92.7917 279.759,78.6251 268.5,65C 273.311,64.8674 277.977,65.7008 282.5,67.5 Z"/></g>
<g><path style="opacity:1" fill="#c91cc0" d="M 266.5,96.5 C 265.508,96.6716 264.842,96.3382 264.5,95.5C 254.662,87.5447 243.328,82.878 230.5,81.5C 234.639,80.4371 238.972,79.7704 243.5,79.5C 243.5,76.1667 243.5,72.8333 243.5,69.5C 250.211,69.287 256.877,69.6204 263.5,70.5C 263.448,74.1981 263.114,77.8648 262.5,81.5C 268.567,81.6256 270.734,84.6256 269,90.5C 268.76,92.8516 267.927,94.8516 266.5,96.5 Z"/></g>
<g><path style="opacity:1" fill="#cf25b6" d="M 228.5,81.5 C 222.491,81.3338 216.491,81.5005 210.5,82C 207.949,82.0023 205.949,82.8356 204.5,84.5C 203.399,83.1516 202.399,81.6516 201.5,80C 209.36,74.8191 217.86,72.3191 227,72.5C 227.696,75.4781 228.196,78.4781 228.5,81.5 Z"/></g>
<g><path style="opacity:1" fill="#c00dcf" d="M 228.5,81.5 C 229.167,81.5 229.833,81.5 230.5,81.5C 243.328,82.878 254.662,87.5447 264.5,95.5C 255.594,93.8973 246.594,93.2306 237.5,93.5C 231.681,92.3475 225.681,92.1808 219.5,93C 210.117,95.4068 200.784,97.9068 191.5,100.5C 186.674,100.013 183.674,97.346 182.5,92.5C 183.833,91.0665 185.333,89.7332 187,88.5C 189.007,91.3362 191.174,94.0029 193.5,96.5C 197.833,93.8333 202.167,91.1667 206.5,88.5C 205.37,87.3777 204.703,86.0443 204.5,84.5C 205.949,82.8356 207.949,82.0023 210.5,82C 216.491,81.5005 222.491,81.3338 228.5,81.5 Z"/></g>
<g><path style="opacity:1" fill="#990cc1" d="M 182.5,92.5 C 183.674,97.346 186.674,100.013 191.5,100.5C 200.784,97.9068 210.117,95.4068 219.5,93C 225.681,92.1808 231.681,92.3475 237.5,93.5C 219.623,95.9391 204.29,103.439 191.5,116C 188.833,116.667 186.167,116.667 183.5,116C 180.671,114.644 178.004,113.144 175.5,111.5C 172.901,110.239 170.568,108.573 168.5,106.5C 172.743,101.284 177.41,96.6176 182.5,92.5 Z"/></g>
<g><path style="opacity:1" fill="#e17f5a" d="M 282.5,67.5 C 301.323,74.3104 311.323,87.6438 312.5,107.5C 312.806,110.385 312.473,113.052 311.5,115.5C 305.64,110.757 300.973,105.09 297.5,98.5C 296.456,86.0828 291.456,75.7495 282.5,67.5 Z"/></g>
<g><path style="opacity:1" fill="#5d178f" d="M 265.5,98.5 C 265.573,100.027 264.906,101.027 263.5,101.5C 243.181,97.5968 224.514,101.43 207.5,113C 204.454,113.739 201.454,114.572 198.5,115.5C 212.011,102.821 228.178,96.4882 247,96.5C 253.225,96.7126 259.392,97.3793 265.5,98.5 Z"/></g>
<g><path style="opacity:1" fill="#fe7d23" d="M 270.5,107.5 C 279.635,107.368 288.635,108.368 297.5,110.5C 296.169,115.155 294.836,119.821 293.5,124.5C 293.167,124.5 292.833,124.5 292.5,124.5C 281.765,121.787 271.098,119.454 260.5,117.5C 264.194,114.473 267.527,111.14 270.5,107.5 Z"/></g>
<g><path style="opacity:1" fill="#421c7c" d="M 263.5,101.5 C 262.833,102.5 262.167,103.5 261.5,104.5C 233.393,101.032 210.393,110.199 192.5,132C 190.833,132.333 189.167,132.667 187.5,133C 186.491,135.172 184.824,136.338 182.5,136.5C 183.38,138.611 183.38,140.611 182.5,142.5C 179.833,143.833 177.167,145.167 174.5,146.5C 175.025,141.445 176.692,136.779 179.5,132.5C 185.089,130.08 189.255,126.08 192,120.5C 193.758,118.235 195.925,116.568 198.5,115.5C 201.454,114.572 204.454,113.739 207.5,113C 224.514,101.43 243.181,97.5968 263.5,101.5 Z"/></g>
<g><path style="opacity:1" fill="#e07334" d="M 297.5,98.5 C 300.973,105.09 305.64,110.757 311.5,115.5C 311.682,120.453 310.682,125.119 308.5,129.5C 303.66,127.373 298.66,125.706 293.5,124.5C 294.836,119.821 296.169,115.155 297.5,110.5C 297.5,106.5 297.5,102.5 297.5,98.5 Z"/></g>
<g><path style="opacity:1" fill="#fe881c" d="M 260.5,117.5 C 271.098,119.454 281.765,121.787 292.5,124.5C 289.898,129.762 286.898,134.762 283.5,139.5C 283.167,139.5 282.833,139.5 282.5,139.5C 277.025,138.141 271.358,137.141 265.5,136.5C 264.661,141.668 262.161,142.668 258,139.5C 257.51,138.207 257.343,136.873 257.5,135.5C 247.497,135.75 237.497,136.084 227.5,136.5C 239.543,131.978 250.543,125.645 260.5,117.5 Z"/></g>
<g><path style="opacity:1" fill="#3f2978" d="M 261.5,104.5 C 260.48,106.352 258.98,107.685 257,108.5C 228.819,104.343 207.319,114.343 192.5,138.5C 189.222,140.036 185.889,141.369 182.5,142.5C 183.38,140.611 183.38,138.611 182.5,136.5C 184.824,136.338 186.491,135.172 187.5,133C 189.167,132.667 190.833,132.333 192.5,132C 210.393,110.199 233.393,101.032 261.5,104.5 Z"/></g>
<g><path style="opacity:1" fill="#7216a2" d="M 237.5,93.5 C 246.594,93.2306 255.594,93.8973 264.5,95.5C 264.842,96.3382 265.508,96.6716 266.5,96.5C 266.672,97.4916 266.338,98.1583 265.5,98.5C 259.392,97.3793 253.225,96.7126 247,96.5C 228.178,96.4882 212.011,102.821 198.5,115.5C 195.925,116.568 193.758,118.235 192,120.5C 189.255,126.08 185.089,130.08 179.5,132.5C 176.692,136.779 175.025,141.445 174.5,146.5C 169.259,149.567 164.426,153.233 160,157.5C 159.272,154.77 159.438,152.103 160.5,149.5C 157.479,147.577 154.146,146.577 150.5,146.5C 151.715,137.52 154.715,129.187 159.5,121.5C 162.273,122.97 165.106,124.303 168,125.5C 170.902,122.041 173.568,118.374 176,114.5C 176.47,113.423 176.303,112.423 175.5,111.5C 178.004,113.144 180.671,114.644 183.5,116C 186.167,116.667 188.833,116.667 191.5,116C 204.29,103.439 219.623,95.9391 237.5,93.5 Z"/></g>
<g><path style="opacity:1" fill="#df7a24" d="M 292.5,124.5 C 292.833,124.5 293.167,124.5 293.5,124.5C 298.66,125.706 303.66,127.373 308.5,129.5C 307.117,135.271 304.45,140.271 300.5,144.5C 294.985,142.371 289.319,140.704 283.5,139.5C 286.898,134.762 289.898,129.762 292.5,124.5 Z"/></g>
<g><path style="opacity:1" fill="#7b2084" d="M 316.5,106.5 C 320.5,105.167 324.5,105.167 328.5,106.5C 328.5,107.167 328.5,107.833 328.5,108.5C 328.753,119.39 327.42,130.057 324.5,140.5C 320.851,139.733 317.518,138.4 314.5,136.5C 316.932,128.894 318.265,121.06 318.5,113C 318.467,110.39 317.8,108.223 316.5,106.5 Z"/></g>
<g><path style="opacity:1" fill="#e87c6a" d="M 338.5,119.5 C 347.717,134.692 351.05,151.025 348.5,168.5C 349.802,161.626 347.635,156.293 342,152.5C 338.392,146.053 337.558,139.219 339.5,132C 337.595,127.912 337.262,123.745 338.5,119.5 Z"/></g>
<g><path style="opacity:1" fill="#ff9814" d="M 282.5,139.5 C 277.852,144.482 272.519,148.482 266.5,151.5C 241.366,148.599 216.366,149.266 191.5,153.5C 191.5,151.833 191.5,150.167 191.5,148.5C 203.216,143.928 215.216,139.928 227.5,136.5C 237.497,136.084 247.497,135.75 257.5,135.5C 257.343,136.873 257.51,138.207 258,139.5C 262.161,142.668 264.661,141.668 265.5,136.5C 271.358,137.141 277.025,138.141 282.5,139.5 Z"/></g>
<g><path style="opacity:1" fill="#e0881b" d="M 282.5,139.5 C 282.833,139.5 283.167,139.5 283.5,139.5C 289.319,140.704 294.985,142.371 300.5,144.5C 297.617,150.055 293.617,154.722 288.5,158.5C 281.613,155.276 274.279,153.276 266.5,152.5C 266.5,152.167 266.5,151.833 266.5,151.5C 272.519,148.482 277.852,144.482 282.5,139.5 Z"/></g>
<g><path style="opacity:1" fill="#6e1b8a" d="M 314.5,136.5 C 317.518,138.4 320.851,139.733 324.5,140.5C 322.34,149.818 318.34,158.151 312.5,165.5C 308.055,163.461 303.389,161.794 298.5,160.5C 304.839,153.151 310.172,145.151 314.5,136.5 Z"/></g>
<g><path style="opacity:1" fill="#f56e4d" d="M 328.5,106.5 C 332.568,110.239 335.901,114.572 338.5,119.5C 337.262,123.745 337.595,127.912 339.5,132C 337.558,139.219 338.392,146.053 342,152.5C 347.635,156.293 349.802,161.626 348.5,168.5C 348.492,171.545 348.159,174.545 347.5,177.5C 344.779,177.037 342.112,176.371 339.5,175.5C 340.724,170.891 341.224,166.224 341,161.5C 337.513,158.855 335.013,155.521 333.5,151.5C 330.175,141.719 331.175,132.386 336.5,123.5C 335.193,118.219 332.86,113.552 329.5,109.5C 329.5,108.833 329.167,108.5 328.5,108.5C 328.5,107.833 328.5,107.167 328.5,106.5 Z"/></g>
<g><path style="opacity:1" fill="#fca904" d="M 266.5,151.5 C 266.5,151.833 266.5,152.167 266.5,152.5C 252.721,159.205 238.388,163.872 223.5,166.5C 222.5,166.5 221.5,166.5 220.5,166.5C 210.157,166.588 199.824,166.922 189.5,167.5C 189.685,164.076 190.685,160.909 192.5,158C 191.852,156.56 191.519,155.06 191.5,153.5C 216.366,149.266 241.366,148.599 266.5,151.5 Z"/></g>
<g><path style="opacity:1" fill="#ffbe44" d="M 191.5,148.5 C 191.5,150.167 191.5,151.833 191.5,153.5C 191.519,155.06 191.852,156.56 192.5,158C 190.685,160.909 189.685,164.076 189.5,167.5C 189.167,167.5 188.833,167.5 188.5,167.5C 178.858,169.259 169.191,170.925 159.5,172.5C 166.982,160.364 177.649,152.364 191.5,148.5 Z"/></g>
<g><path style="opacity:1" fill="#f4613b" d="M 329.5,109.5 C 332.86,113.552 335.193,118.219 336.5,123.5C 331.175,132.386 330.175,141.719 333.5,151.5C 331.868,154.673 330.535,158.006 329.5,161.5C 332.91,161.384 334.244,163.05 333.5,166.5C 331.278,166.822 329.444,166.155 328,164.5C 327.205,167.115 325.705,169.115 323.5,170.5C 320.885,169.731 318.219,169.397 315.5,169.5C 327.67,151.328 332.337,131.328 329.5,109.5 Z"/></g>
<g><path style="opacity:1" fill="#ce8e14" d="M 266.5,152.5 C 274.279,153.276 281.613,155.276 288.5,158.5C 281.518,164.998 273.518,169.998 264.5,173.5C 257.902,171.851 251.235,170.517 244.5,169.5C 239.04,168.263 233.373,167.596 227.5,167.5C 226.432,166.566 225.099,166.232 223.5,166.5C 238.388,163.872 252.721,159.205 266.5,152.5 Z"/></g>
<g><path style="opacity:1" fill="#f89f27" d="M 220.5,166.5 C 210.533,168.8 200.867,172.3 191.5,177C 188.034,179.114 185.367,181.948 183.5,185.5C 183.167,185.5 182.833,185.5 182.5,185.5C 179.904,186.265 177.237,186.599 174.5,186.5C 180.86,181.459 185.527,175.126 188.5,167.5C 188.833,167.5 189.167,167.5 189.5,167.5C 199.824,166.922 210.157,166.588 220.5,166.5 Z"/></g>
<g><path style="opacity:1" fill="#db8a1f" d="M 220.5,166.5 C 221.5,166.5 222.5,166.5 223.5,166.5C 225.099,166.232 226.432,166.566 227.5,167.5C 225.208,167.244 223.041,167.577 221,168.5C 217.128,172.91 214.295,177.91 212.5,183.5C 202.75,183.309 193.083,183.975 183.5,185.5C 185.367,181.948 188.034,179.114 191.5,177C 200.867,172.3 210.533,168.8 220.5,166.5 Z"/></g>
<g><path style="opacity:1" fill="#ca8225" d="M 227.5,167.5 C 233.373,167.596 239.04,168.263 244.5,169.5C 241.072,169.547 238.072,170.713 235.5,173C 232.13,176.035 229.13,179.368 226.5,183C 224.19,183.497 221.857,183.663 219.5,183.5C 217.167,183.5 214.833,183.5 212.5,183.5C 214.295,177.91 217.128,172.91 221,168.5C 223.041,167.577 225.208,167.244 227.5,167.5 Z"/></g>
<g><path style="opacity:1" fill="#3a2072" d="M 316.5,106.5 C 317.8,108.223 318.467,110.39 318.5,113C 318.265,121.06 316.932,128.894 314.5,136.5C 310.172,145.151 304.839,153.151 298.5,160.5C 278.027,178.74 254.36,191.24 227.5,198C 215.067,202.463 204.9,209.963 197,220.5C 194.133,225.099 192.966,230.099 193.5,235.5C 190.62,235.06 187.954,234.06 185.5,232.5C 185.268,226.694 186.768,221.361 190,216.5C 194.698,210.637 199.865,205.303 205.5,200.5C 209.007,198.246 212.673,196.246 216.5,194.5C 232.703,187.88 248.703,180.88 264.5,173.5C 273.518,169.998 281.518,164.998 288.5,158.5C 293.617,154.722 297.617,150.055 300.5,144.5C 304.45,140.271 307.117,135.271 308.5,129.5C 310.682,125.119 311.682,120.453 311.5,115.5C 312.473,113.052 312.806,110.385 312.5,107.5C 313.708,106.766 315.041,106.433 316.5,106.5 Z"/></g>
<g><path style="opacity:1" fill="#fab250" d="M 188.5,167.5 C 185.527,175.126 180.86,181.459 174.5,186.5C 168.855,187.83 163.188,189.163 157.5,190.5C 154.572,184.185 155.239,178.185 159.5,172.5C 169.191,170.925 178.858,169.259 188.5,167.5 Z"/></g>
<g><path style="opacity:1" fill="#bc782c" d="M 244.5,169.5 C 251.235,170.517 257.902,171.851 264.5,173.5C 248.703,180.88 232.703,187.88 216.5,194.5C 216.489,190.536 217.489,186.869 219.5,183.5C 221.857,183.663 224.19,183.497 226.5,183C 229.13,179.368 232.13,176.035 235.5,173C 238.072,170.713 241.072,169.547 244.5,169.5 Z"/></g>
<g><path style="opacity:1" fill="#5d1691" d="M 298.5,160.5 C 303.389,161.794 308.055,163.461 312.5,165.5C 303.132,178.531 290.798,187.698 275.5,193C 255.515,197.827 236.515,205.161 218.5,215C 209.41,220.25 203.077,227.75 199.5,237.5C 197.214,237.405 195.214,236.738 193.5,235.5C 192.966,230.099 194.133,225.099 197,220.5C 204.9,209.963 215.067,202.463 227.5,198C 254.36,191.24 278.027,178.74 298.5,160.5 Z"/></g>
<g><path style="opacity:1" fill="#fc6d2f" d="M 333.5,151.5 C 335.013,155.521 337.513,158.855 341,161.5C 341.224,166.224 340.724,170.891 339.5,175.5C 338.345,178.328 337.011,180.995 335.5,183.5C 330.383,182.637 325.383,181.304 320.5,179.5C 318.814,180.857 317.148,182.19 315.5,183.5C 315.5,178.833 315.5,174.167 315.5,169.5C 318.219,169.397 320.885,169.731 323.5,170.5C 325.705,169.115 327.205,167.115 328,164.5C 329.444,166.155 331.278,166.822 333.5,166.5C 334.244,163.05 332.91,161.384 329.5,161.5C 330.535,158.006 331.868,154.673 333.5,151.5 Z"/></g>
<g><path style="opacity:1" fill="#3b2072" d="M 328.5,108.5 C 329.167,108.5 329.5,108.833 329.5,109.5C 332.337,131.328 327.67,151.328 315.5,169.5C 312.571,174.099 308.904,178.099 304.5,181.5C 298.591,186.23 292.257,190.397 285.5,194C 274.773,198.292 264.107,202.459 253.5,206.5C 242.702,208.76 232.702,212.76 223.5,218.5C 219.863,219.986 216.53,221.986 213.5,224.5C 209.432,228.239 206.099,232.572 203.5,237.5C 202.167,237.5 200.833,237.5 199.5,237.5C 203.077,227.75 209.41,220.25 218.5,215C 236.515,205.161 255.515,197.827 275.5,193C 290.798,187.698 303.132,178.531 312.5,165.5C 318.34,158.151 322.34,149.818 324.5,140.5C 327.42,130.057 328.753,119.39 328.5,108.5 Z"/></g>
<g><path style="opacity:1" fill="#f18246" d="M 315.5,169.5 C 315.5,174.167 315.5,178.833 315.5,183.5C 315.5,183.833 315.5,184.167 315.5,184.5C 313.882,186.785 311.882,188.785 309.5,190.5C 307.591,189.652 305.591,189.318 303.5,189.5C 304.388,186.946 304.721,184.279 304.5,181.5C 308.904,178.099 312.571,174.099 315.5,169.5 Z"/></g>
<g><path style="opacity:1" fill="#d47b32" d="M 212.5,183.5 C 214.833,183.5 217.167,183.5 219.5,183.5C 217.489,186.869 216.489,190.536 216.5,194.5C 212.673,196.246 209.007,198.246 205.5,200.5C 195.774,201.005 186.107,202.005 176.5,203.5C 176.784,196.932 178.784,190.932 182.5,185.5C 182.833,185.5 183.167,185.5 183.5,185.5C 193.083,183.975 202.75,183.309 212.5,183.5 Z"/></g>
<g><path style="opacity:1" fill="#e2702f" d="M 339.5,175.5 C 342.112,176.371 344.779,177.037 347.5,177.5C 345.804,185.259 343.138,192.593 339.5,199.5C 338.292,198.766 336.959,198.433 335.5,198.5C 335.67,197.178 335.337,196.011 334.5,195C 332.893,195.019 331.226,195.185 329.5,195.5C 332.025,191.783 334.025,187.783 335.5,183.5C 337.011,180.995 338.345,178.328 339.5,175.5 Z"/></g>
<g><path style="opacity:1" fill="#fb943a" d="M 315.5,184.5 C 314.339,190.988 312.005,196.988 308.5,202.5C 304.681,202.586 301.015,201.919 297.5,200.5C 299.754,196.993 301.754,193.327 303.5,189.5C 305.591,189.318 307.591,189.652 309.5,190.5C 311.882,188.785 313.882,186.785 315.5,184.5 Z"/></g>
<g><path style="opacity:1" fill="#fe831e" d="M 335.5,183.5 C 334.025,187.783 332.025,191.783 329.5,195.5C 326.848,199.482 323.848,203.149 320.5,206.5C 316.5,205.167 312.5,203.833 308.5,202.5C 312.005,196.988 314.339,190.988 315.5,184.5C 315.5,184.167 315.5,183.833 315.5,183.5C 317.148,182.19 318.814,180.857 320.5,179.5C 325.383,181.304 330.383,182.637 335.5,183.5 Z"/></g>
<g><path style="opacity:1" fill="#f28f34" d="M 182.5,185.5 C 178.784,190.932 176.784,196.932 176.5,203.5C 175.833,203.5 175.5,203.833 175.5,204.5C 171.124,204.909 166.79,205.575 162.5,206.5C 159.654,201.624 157.987,196.291 157.5,190.5C 163.188,189.163 168.855,187.83 174.5,186.5C 177.237,186.599 179.904,186.265 182.5,185.5 Z"/></g>
<g><path style="opacity:1" fill="#eba052" d="M 304.5,181.5 C 304.721,184.279 304.388,186.946 303.5,189.5C 301.754,193.327 299.754,196.993 297.5,200.5C 291.565,204.3 285.232,207.3 278.5,209.5C 270.135,208.657 261.801,207.657 253.5,206.5C 264.107,202.459 274.773,198.292 285.5,194C 292.257,190.397 298.591,186.23 304.5,181.5 Z"/></g>
<g><path style="opacity:1" fill="#ce6e43" d="M 205.5,200.5 C 199.865,205.303 194.698,210.637 190,216.5C 186.768,221.361 185.268,226.694 185.5,232.5C 180.068,229.787 175.401,226.12 171.5,221.5C 173.5,221.5 175.5,221.5 177.5,221.5C 176.725,215.847 176.058,210.18 175.5,204.5C 175.5,203.833 175.833,203.5 176.5,203.5C 186.107,202.005 195.774,201.005 205.5,200.5 Z"/></g>
<g><path style="opacity:1" fill="#fd9b1d" d="M 297.5,200.5 C 301.015,201.919 304.681,202.586 308.5,202.5C 312.5,203.833 316.5,205.167 320.5,206.5C 317.473,210.194 314.14,213.527 310.5,216.5C 310.167,216.5 309.833,216.5 309.5,216.5C 299.4,213.956 289.067,211.956 278.5,210.5C 278.5,210.167 278.5,209.833 278.5,209.5C 285.232,207.3 291.565,204.3 297.5,200.5 Z"/></g>
<g><path style="opacity:1" fill="#ea7d3f" d="M 175.5,204.5 C 176.058,210.18 176.725,215.847 177.5,221.5C 175.5,221.5 173.5,221.5 171.5,221.5C 167.734,216.97 164.734,211.97 162.5,206.5C 166.79,205.575 171.124,204.909 175.5,204.5 Z"/></g>
<g><path style="opacity:1" fill="#df9b1a" d="M 253.5,206.5 C 261.801,207.657 270.135,208.657 278.5,209.5C 278.5,209.833 278.5,210.167 278.5,210.5C 262.375,216.278 246.042,220.944 229.5,224.5C 229.167,224.5 228.833,224.5 228.5,224.5C 226.833,222.5 225.167,220.5 223.5,218.5C 232.702,212.76 242.702,208.76 253.5,206.5 Z"/></g>
<g><path style="opacity:1" fill="#db8220" d="M 339.5,199.5 C 337.007,205.98 333.341,211.646 328.5,216.5C 324.818,216.335 321.152,216.501 317.5,217C 318.696,217.654 318.696,218.154 317.5,218.5C 315.271,217.423 312.937,216.756 310.5,216.5C 314.14,213.527 317.473,210.194 320.5,206.5C 323.848,203.149 326.848,199.482 329.5,195.5C 331.226,195.185 332.893,195.019 334.5,195C 335.337,196.011 335.67,197.178 335.5,198.5C 336.959,198.433 338.292,198.766 339.5,199.5 Z"/></g>
<g><path style="opacity:1" fill="#feab09" d="M 278.5,210.5 C 289.067,211.956 299.4,213.956 309.5,216.5C 303.625,221.685 296.958,225.685 289.5,228.5C 274.951,231.201 260.284,232.034 245.5,231C 239.78,229.635 234.447,227.469 229.5,224.5C 246.042,220.944 262.375,216.278 278.5,210.5 Z"/></g>
<g><path style="opacity:1" fill="#f79916" d="M 228.5,224.5 C 228.833,224.5 229.167,224.5 229.5,224.5C 234.447,227.469 239.78,229.635 245.5,231C 260.284,232.034 274.951,231.201 289.5,228.5C 271.677,237.542 252.677,241.876 232.5,241.5C 231.833,241.5 231.167,241.5 230.5,241.5C 225.038,239.386 220.372,236.052 216.5,231.5C 219.863,228.149 223.863,225.816 228.5,224.5 Z"/></g>
<g><path style="opacity:1" fill="#d68820" d="M 309.5,216.5 C 309.833,216.5 310.167,216.5 310.5,216.5C 312.937,216.756 315.271,217.423 317.5,218.5C 318.696,218.154 318.696,217.654 317.5,217C 321.152,216.501 324.818,216.335 328.5,216.5C 323.749,222.587 318.082,227.587 311.5,231.5C 292.033,238.96 271.867,243.294 251,244.5C 244.541,244.461 238.374,243.461 232.5,241.5C 252.677,241.876 271.677,237.542 289.5,228.5C 296.958,225.685 303.625,221.685 309.5,216.5 Z"/></g>
<g><path style="opacity:1" fill="#ec8f33" d="M 223.5,218.5 C 225.167,220.5 226.833,222.5 228.5,224.5C 223.863,225.816 219.863,228.149 216.5,231.5C 220.372,236.052 225.038,239.386 230.5,241.5C 228.473,241.338 226.473,241.505 224.5,242C 221.425,243.62 218.258,245.12 215,246.5C 212.23,245.201 209.73,243.535 207.5,241.5C 209.763,237.897 212.43,234.564 215.5,231.5C 214.054,229.382 213.387,227.049 213.5,224.5C 216.53,221.986 219.863,219.986 223.5,218.5 Z"/></g>
<g><path style="opacity:1" fill="#d98038" d="M 311.5,231.5 C 300.795,238.355 289.128,243.188 276.5,246C 262.233,248.681 247.9,250.848 233.5,252.5C 227.074,252.393 221.074,250.727 215.5,247.5C 212.244,250.087 210.244,253.42 209.5,257.5C 206.911,257.539 204.911,256.539 203.5,254.5C 203.629,249.781 204.962,245.448 207.5,241.5C 209.73,243.535 212.23,245.201 215,246.5C 218.258,245.12 221.425,243.62 224.5,242C 226.473,241.505 228.473,241.338 230.5,241.5C 231.167,241.5 231.833,241.5 232.5,241.5C 238.374,243.461 244.541,244.461 251,244.5C 271.867,243.294 292.033,238.96 311.5,231.5 Z"/></g>
<g><path style="opacity:1" fill="#dc8558" d="M 213.5,224.5 C 213.387,227.049 214.054,229.382 215.5,231.5C 212.43,234.564 209.763,237.897 207.5,241.5C 204.962,245.448 203.629,249.781 203.5,254.5C 201.716,254.107 200.05,253.441 198.5,252.5C 198.78,246.993 200.447,241.993 203.5,237.5C 206.099,232.572 209.432,228.239 213.5,224.5 Z"/></g>
<g><path style="opacity:1" fill="#d17749" d="M 233.5,252.5 C 230.226,253.88 226.893,255.38 223.5,257C 222.614,258.615 221.614,260.115 220.5,261.5C 216.789,260.656 213.123,259.656 209.5,258.5C 209.5,258.167 209.5,257.833 209.5,257.5C 210.244,253.42 212.244,250.087 215.5,247.5C 221.074,250.727 227.074,252.393 233.5,252.5 Z"/></g>
<g><path style="opacity:1" fill="#5f1f93" d="M 283.5,261.5 C 280.68,264.081 277.346,265.914 273.5,267C 267.994,267.999 262.66,269.165 257.5,270.5C 256.833,270.5 256.167,270.5 255.5,270.5C 251.609,269.778 247.609,268.944 243.5,268C 242.748,267.329 242.414,266.496 242.5,265.5C 255.719,259.404 269.385,258.07 283.5,261.5 Z"/></g>
<g><path style="opacity:1" fill="#cc6951" d="M 209.5,258.5 C 213.123,259.656 216.789,260.656 220.5,261.5C 220.549,264.099 221.549,266.266 223.5,268C 226.679,269.461 230.012,270.295 233.5,270.5C 240.676,271.603 248.009,271.603 255.5,270.5C 256.167,270.5 256.833,270.5 257.5,270.5C 262.167,270.5 266.833,270.5 271.5,270.5C 270.17,274.668 267.336,276.668 263,276.5C 258.116,276.322 253.616,274.989 249.5,272.5C 245.466,276.536 241.132,280.202 236.5,283.5C 228.63,282.534 221.297,280.034 214.5,276C 209.829,270.844 208.163,265.01 209.5,258.5 Z"/></g>
<g><path style="opacity:1" fill="#4c2778" d="M 242.5,265.5 C 242.414,266.496 242.748,267.329 243.5,268C 247.609,268.944 251.609,269.778 255.5,270.5C 248.009,271.603 240.676,271.603 233.5,270.5C 236.008,268.076 239.008,266.41 242.5,265.5 Z"/></g>
<g><path style="opacity:1" fill="#cc7269" d="M 283.5,261.5 C 288.604,263.369 290.937,267.036 290.5,272.5C 287.526,269.715 285.359,270.381 284,274.5C 280.124,272.264 275.958,270.93 271.5,270.5C 266.833,270.5 262.167,270.5 257.5,270.5C 262.66,269.165 267.994,267.999 273.5,267C 277.346,265.914 280.68,264.081 283.5,261.5 Z"/></g>
<g><path style="opacity:1" fill="#e37354" d="M 198.5,252.5 C 200.05,253.441 201.716,254.107 203.5,254.5C 204.911,256.539 206.911,257.539 209.5,257.5C 209.5,257.833 209.5,258.167 209.5,258.5C 208.163,265.01 209.829,270.844 214.5,276C 221.297,280.034 228.63,282.534 236.5,283.5C 233.5,285.5 230.5,287.5 227.5,289.5C 222.912,288.937 218.579,287.604 214.5,285.5C 203.02,277.538 197.687,266.538 198.5,252.5 Z"/></g>
<g><path style="opacity:1" fill="#db7843" d="M 271.5,270.5 C 275.958,270.93 280.124,272.264 284,274.5C 285.359,270.381 287.526,269.715 290.5,272.5C 289.757,276.915 287.424,280.248 283.5,282.5C 282.824,279.661 280.991,277.995 278,277.5C 272.478,278.922 266.978,280.422 261.5,282C 258.271,285.399 254.938,288.565 251.5,291.5C 247.167,291.5 242.833,291.5 238.5,291.5C 234.575,291.57 230.909,290.903 227.5,289.5C 230.5,287.5 233.5,285.5 236.5,283.5C 241.132,280.202 245.466,276.536 249.5,272.5C 253.616,274.989 258.116,276.322 263,276.5C 267.336,276.668 270.17,274.668 271.5,270.5 Z"/></g>
<g><path style="opacity:1" fill="#f08b30" d="M 283.5,282.5 C 280.797,284.181 278.131,285.847 275.5,287.5C 269.226,289.088 262.892,290.422 256.5,291.5C 254.833,291.5 253.167,291.5 251.5,291.5C 254.938,288.565 258.271,285.399 261.5,282C 266.978,280.422 272.478,278.922 278,277.5C 280.991,277.995 282.824,279.661 283.5,282.5 Z"/></g>
<g><path style="opacity:1" fill="#44207c" d="M 214.5,285.5 C 218.579,287.604 222.912,288.937 227.5,289.5C 230.909,290.903 234.575,291.57 238.5,291.5C 236.5,293.5 234.5,295.5 232.5,297.5C 229.482,297.296 226.482,296.963 223.5,296.5C 219.96,295.697 216.793,294.03 214,291.5C 213.506,289.866 213.34,288.199 213.5,286.5C 214.167,286.5 214.5,286.167 214.5,285.5 Z"/></g>
<g><path style="opacity:1" fill="#5b1f8e" d="M 275.5,287.5 C 277.735,287.205 279.735,287.539 281.5,288.5C 271.547,295.071 260.547,297.738 248.5,296.5C 250.938,294.465 253.605,292.799 256.5,291.5C 262.892,290.422 269.226,289.088 275.5,287.5 Z"/></g>
<g><path style="opacity:1" fill="#fbf0ea" d="M 238.5,291.5 C 242.833,291.5 247.167,291.5 251.5,291.5C 253.167,291.5 254.833,291.5 256.5,291.5C 253.605,292.799 250.938,294.465 248.5,296.5C 246.847,296.66 245.514,297.326 244.5,298.5C 242.167,298.5 239.833,298.5 237.5,298.5C 235.708,298.634 234.042,298.301 232.5,297.5C 234.5,295.5 236.5,293.5 238.5,291.5 Z"/></g>
<g><path style="opacity:1" fill="#c9697c" d="M 213.5,286.5 C 213.34,288.199 213.506,289.866 214,291.5C 216.793,294.03 219.96,295.697 223.5,296.5C 217.428,296.192 211.762,297.526 206.5,300.5C 206.206,294.476 208.539,289.809 213.5,286.5 Z"/></g>
<g><path style="opacity:1" fill="#422472" d="M 281.5,288.5 C 281.833,288.5 282.167,288.5 282.5,288.5C 280.344,291.602 277.344,293.768 273.5,295C 268.095,296.496 262.761,297.663 257.5,298.5C 253.167,298.5 248.833,298.5 244.5,298.5C 245.514,297.326 246.847,296.66 248.5,296.5C 260.547,297.738 271.547,295.071 281.5,288.5 Z"/></g>
<g><path style="opacity:1" fill="#ed813b" d="M 282.5,288.5 C 289.73,290.958 292.23,295.958 290,303.5C 288.693,305.192 287.193,306.525 285.5,307.5C 284.391,307.443 283.391,307.11 282.5,306.5C 283.8,305.173 285.133,303.84 286.5,302.5C 283.93,301.777 281.597,300.61 279.5,299C 274.879,299.482 270.212,299.982 265.5,300.5C 262.833,299.833 260.167,299.167 257.5,298.5C 262.761,297.663 268.095,296.496 273.5,295C 277.344,293.768 280.344,291.602 282.5,288.5 Z"/></g>
<g><path style="opacity:1" fill="#df8628" d="M 237.5,298.5 C 239.833,298.5 242.167,298.5 244.5,298.5C 248.833,298.5 253.167,298.5 257.5,298.5C 260.167,299.167 262.833,299.833 265.5,300.5C 263.698,301.458 261.698,302.125 259.5,302.5C 254.453,302.337 249.453,302.671 244.5,303.5C 237.178,303.326 231.178,306.159 226.5,312C 228.608,312.36 230.608,313.027 232.5,314C 230.042,315.733 230.375,316.9 233.5,317.5C 231.708,317.634 230.042,317.301 228.5,316.5C 225.421,315.696 222.421,314.696 219.5,313.5C 223.565,308.432 228.232,304.098 233.5,300.5C 234.995,300.011 236.329,299.345 237.5,298.5 Z"/></g>
<g><path style="opacity:1" fill="#e37446" d="M 233.5,300.5 C 228.232,304.098 223.565,308.432 219.5,313.5C 216.865,312.189 214.531,310.522 212.5,308.5C 216.431,307.593 216.431,306.426 212.5,305C 214.027,302.031 216.527,300.531 220,300.5C 224.509,301.789 229.009,301.789 233.5,300.5 Z"/></g>
<g><path style="opacity:1" fill="#fe9214" d="M 282.5,306.5 C 279.412,308.375 276.078,309.708 272.5,310.5C 268.144,307.799 263.811,305.132 259.5,302.5C 261.698,302.125 263.698,301.458 265.5,300.5C 270.212,299.982 274.879,299.482 279.5,299C 281.597,300.61 283.93,301.777 286.5,302.5C 285.133,303.84 283.8,305.173 282.5,306.5 Z"/></g>
<g><path style="opacity:1" fill="#fea901" d="M 259.5,302.5 C 263.811,305.132 268.144,307.799 272.5,310.5C 269.112,312.175 265.445,313.342 261.5,314C 252.833,314.667 244.167,314.667 235.5,314C 234.833,313.667 234.167,313.333 233.5,313C 236.769,309.221 240.436,306.054 244.5,303.5C 249.453,302.671 254.453,302.337 259.5,302.5 Z"/></g>
<g><path style="opacity:1" fill="#d26857" d="M 223.5,296.5 C 226.482,296.963 229.482,297.296 232.5,297.5C 234.042,298.301 235.708,298.634 237.5,298.5C 236.329,299.345 234.995,300.011 233.5,300.5C 229.009,301.789 224.509,301.789 220,300.5C 216.527,300.531 214.027,302.031 212.5,305C 216.431,306.426 216.431,307.593 212.5,308.5C 209.353,306.687 207.353,304.02 206.5,300.5C 211.762,297.526 217.428,296.192 223.5,296.5 Z"/></g>
<g><path style="opacity:1" fill="#e59716" d="M 244.5,303.5 C 240.436,306.054 236.769,309.221 233.5,313C 234.167,313.333 234.833,313.667 235.5,314C 244.167,314.667 252.833,314.667 261.5,314C 265.445,313.342 269.112,312.175 272.5,310.5C 276.078,309.708 279.412,308.375 282.5,306.5C 283.391,307.11 284.391,307.443 285.5,307.5C 282.07,310.726 278.07,313.226 273.5,315C 266.969,317.006 260.302,318.173 253.5,318.5C 246.745,318.793 240.078,318.46 233.5,317.5C 230.375,316.9 230.042,315.733 232.5,314C 230.608,313.027 228.608,312.36 226.5,312C 231.178,306.159 237.178,303.326 244.5,303.5 Z"/></g>
<g><path style="opacity:1" fill="#631d8d" d="M 227.5,319.5 C 227.5,319.167 227.5,318.833 227.5,318.5C 234.803,318.715 241.47,320.715 247.5,324.5C 247.5,324.833 247.5,325.167 247.5,325.5C 245.5,325.5 243.5,325.5 241.5,325.5C 236.675,324.093 232.009,322.093 227.5,319.5 Z"/></g>
<g><path style="opacity:1" fill="#492a77" d="M 228.5,316.5 C 230.042,317.301 231.708,317.634 233.5,317.5C 240.078,318.46 246.745,318.793 253.5,318.5C 251.833,320.833 249.833,322.833 247.5,324.5C 241.47,320.715 234.803,318.715 227.5,318.5C 227.833,317.833 228.167,317.167 228.5,316.5 Z"/></g>
<g><path style="opacity:1" fill="#db7845" d="M 227.5,319.5 C 232.009,322.093 236.675,324.093 241.5,325.5C 239.015,326.272 236.515,325.938 234,324.5C 230.5,326.667 230.667,328.5 234.5,330C 233.944,330.383 233.611,330.883 233.5,331.5C 228.178,328.859 226.178,324.859 227.5,319.5 Z"/></g>
<g><path style="opacity:1" fill="#ec981c" d="M 233.5,331.5 C 233.611,330.883 233.944,330.383 234.5,330C 230.667,328.5 230.5,326.667 234,324.5C 236.515,325.938 239.015,326.272 241.5,325.5C 243.5,325.5 245.5,325.5 247.5,325.5C 256.408,325.684 264.741,323.684 272.5,319.5C 273.314,321.952 272.814,324.285 271,326.5C 268.011,330.491 264.178,333.324 259.5,335C 252.833,335.667 246.167,335.667 239.5,335C 237.273,334.059 235.273,332.892 233.5,331.5 Z"/></g>
<g><path style="opacity:1" fill="#212d61" d="M 216.5,355.5 C 226.393,354.232 233.726,357.899 238.5,366.5C 233.264,368.349 228.598,367.516 224.5,364C 212.233,364.396 209.066,370.229 215,381.5C 219.97,384.566 224.47,384.066 228.5,380C 231.817,379.502 235.15,379.335 238.5,379.5C 237.119,385.384 233.453,389.217 227.5,391C 213.189,393.351 205.189,387.351 203.5,373C 204.242,364.434 208.575,358.6 216.5,355.5 Z"/></g>
<g><path style="opacity:1" fill="#8389a3" d="M 292.5,362.5 C 292.5,360.5 292.5,358.5 292.5,356.5C 283.5,356.5 274.5,356.5 265.5,356.5C 265.5,358.5 265.5,360.5 265.5,362.5C 264.532,360.393 264.198,358.059 264.5,355.5C 274.167,355.5 283.833,355.5 293.5,355.5C 293.802,358.059 293.468,360.393 292.5,362.5 Z"/></g>
<g><path style="opacity:1" fill="#202c61" d="M 331.5,355.5 C 339.53,354.544 346.363,356.877 352,362.5C 353.009,364.025 353.509,365.692 353.5,367.5C 348.553,368.152 344.22,366.985 340.5,364C 329.132,363.383 325.298,368.55 329,379.5C 333.554,384.425 338.387,384.758 343.5,380.5C 346.768,379.513 350.102,379.18 353.5,379.5C 351.98,385.852 347.98,389.685 341.5,391C 324.184,392.007 317.017,383.841 320,366.5C 322.495,361.353 326.329,357.686 331.5,355.5 Z"/></g>
<g><path style="opacity:1" fill="#8b91aa" d="M 132.5,356.5 C 125.5,356.5 118.5,356.5 111.5,356.5C 111.5,368.167 111.5,379.833 111.5,391.5C 110.505,379.678 110.172,367.678 110.5,355.5C 118.019,355.175 125.352,355.508 132.5,356.5 Z"/></g>
<g><path style="opacity:1" fill="#17265c" d="M 132.5,356.5 C 132.5,358.5 132.5,360.5 132.5,362.5C 128.5,362.5 124.5,362.5 120.5,362.5C 119.527,364.948 119.194,367.615 119.5,370.5C 123.167,370.5 126.833,370.5 130.5,370.5C 130.5,372.5 130.5,374.5 130.5,376.5C 126.833,376.5 123.167,376.5 119.5,376.5C 119.5,379.5 119.5,382.5 119.5,385.5C 123.833,385.5 128.167,385.5 132.5,385.5C 132.5,387.5 132.5,389.5 132.5,391.5C 125.5,391.5 118.5,391.5 111.5,391.5C 111.5,379.833 111.5,368.167 111.5,356.5C 118.5,356.5 125.5,356.5 132.5,356.5 Z"/></g>
<g><path style="opacity:1" fill="#9398af" d="M 153.5,356.5 C 148.167,356.5 142.833,356.5 137.5,356.5C 137.5,368.167 137.5,379.833 137.5,391.5C 136.505,379.678 136.172,367.678 136.5,355.5C 142.358,355.178 148.025,355.511 153.5,356.5 Z"/></g>
<g><path style="opacity:1" fill="#19275d" d="M 153.5,356.5 C 165.882,359.243 170.715,366.909 168,379.5C 166.167,384.667 162.667,388.167 157.5,390C 150.908,391.329 144.241,391.829 137.5,391.5C 137.5,379.833 137.5,368.167 137.5,356.5C 142.833,356.5 148.167,356.5 153.5,356.5 Z"/></g>
<g><path style="opacity:1" fill="#1a285d" d="M 171.5,356.5 C 174.167,356.5 176.833,356.5 179.5,356.5C 179.175,364.352 179.508,372.018 180.5,379.5C 181.033,382.525 182.867,383.858 186,383.5C 188.667,383.833 190.667,382.833 192,380.5C 192.5,372.507 192.666,364.507 192.5,356.5C 195.167,356.5 197.833,356.5 200.5,356.5C 200.5,364.167 200.5,371.833 200.5,379.5C 200.381,384.456 198.048,387.956 193.5,390C 183.926,393.919 176.759,391.419 172,382.5C 171.5,373.84 171.334,365.173 171.5,356.5 Z"/></g>
<g><path style="opacity:1" fill="#7f86a1" d="M 171.5,356.5 C 174.287,355.523 177.287,355.19 180.5,355.5C 180.5,363.5 180.5,371.5 180.5,379.5C 179.508,372.018 179.175,364.352 179.5,356.5C 176.833,356.5 174.167,356.5 171.5,356.5 Z"/></g>
<g><path style="opacity:1" fill="#6b7394" d="M 192.5,356.5 C 195.287,355.523 198.287,355.19 201.5,355.5C 201.826,363.684 201.492,371.684 200.5,379.5C 200.5,371.833 200.5,364.167 200.5,356.5C 197.833,356.5 195.167,356.5 192.5,356.5 Z"/></g>
<g><path style="opacity:1" fill="#1d2a5f" d="M 292.5,362.5 C 289.5,362.5 286.5,362.5 283.5,362.5C 283.5,372.167 283.5,381.833 283.5,391.5C 280.5,391.5 277.5,391.5 274.5,391.5C 274.5,381.833 274.5,372.167 274.5,362.5C 271.5,362.5 268.5,362.5 265.5,362.5C 265.5,360.5 265.5,358.5 265.5,356.5C 274.5,356.5 283.5,356.5 292.5,356.5C 292.5,358.5 292.5,360.5 292.5,362.5 Z"/></g>
<g><path style="opacity:1" fill="#1c295e" d="M 304.5,362.5 C 303.527,364.948 303.194,367.615 303.5,370.5C 307.5,370.5 311.5,370.5 315.5,370.5C 315.5,372.5 315.5,374.5 315.5,376.5C 311.833,376.5 308.167,376.5 304.5,376.5C 303.523,379.287 303.19,382.287 303.5,385.5C 307.833,385.5 312.167,385.5 316.5,385.5C 316.5,387.5 316.5,389.5 316.5,391.5C 309.5,391.5 302.5,391.5 295.5,391.5C 295.5,379.5 295.5,367.5 295.5,355.5C 302.5,355.5 309.5,355.5 316.5,355.5C 316.5,357.833 316.5,360.167 316.5,362.5C 312.5,362.5 308.5,362.5 304.5,362.5 Z"/></g>
<g><path style="opacity:1" fill="#656e90" d="M 365.5,356.5 C 362.833,356.5 360.167,356.5 357.5,356.5C 357.5,368.167 357.5,379.833 357.5,391.5C 356.505,379.678 356.172,367.678 356.5,355.5C 359.713,355.19 362.713,355.523 365.5,356.5 Z"/></g>
<g><path style="opacity:1" fill="#17265c" d="M 365.5,356.5 C 365.5,360.833 365.5,365.167 365.5,369.5C 369.97,370.486 374.637,370.819 379.5,370.5C 379.5,365.833 379.5,361.167 379.5,356.5C 382.167,356.5 384.833,356.5 387.5,356.5C 387.5,368.167 387.5,379.833 387.5,391.5C 384.833,391.5 382.167,391.5 379.5,391.5C 379.5,386.5 379.5,381.5 379.5,376.5C 374.833,376.5 370.167,376.5 365.5,376.5C 365.5,381.5 365.5,386.5 365.5,391.5C 362.833,391.5 360.167,391.5 357.5,391.5C 357.5,379.833 357.5,368.167 357.5,356.5C 360.167,356.5 362.833,356.5 365.5,356.5 Z"/></g>
<g><path style="opacity:1" fill="#abafbf" d="M 387.5,391.5 C 387.5,379.833 387.5,368.167 387.5,356.5C 384.833,356.5 382.167,356.5 379.5,356.5C 379.5,361.167 379.5,365.833 379.5,370.5C 374.637,370.819 369.97,370.486 365.5,369.5C 369.833,369.5 374.167,369.5 378.5,369.5C 378.5,364.833 378.5,360.167 378.5,355.5C 381.833,355.5 385.167,355.5 388.5,355.5C 388.828,367.678 388.495,379.678 387.5,391.5 Z"/></g>
<g><path style="opacity:1" fill="#f3f0ef" d="M 145.5,362.5 C 157.679,362.172 162.179,367.838 159,379.5C 155.843,384.325 151.343,386.325 145.5,385.5C 145.5,377.833 145.5,370.167 145.5,362.5 Z"/></g>
<g><path style="opacity:1" fill="#a3a6b9" d="M 240.5,370.5 C 247.982,369.508 255.648,369.175 263.5,369.5C 263.806,372.385 263.473,375.052 262.5,377.5C 262.5,375.167 262.5,372.833 262.5,370.5C 255.167,370.5 247.833,370.5 240.5,370.5 Z"/></g>
<g><path style="opacity:1" fill="#9b9fb4" d="M 304.5,362.5 C 304.5,364.833 304.5,367.167 304.5,369.5C 308.371,369.185 312.038,369.518 315.5,370.5C 311.5,370.5 307.5,370.5 303.5,370.5C 303.194,367.615 303.527,364.948 304.5,362.5 Z"/></g>
<g><path style="opacity:1" fill="#202d61" d="M 240.5,370.5 C 247.833,370.5 255.167,370.5 262.5,370.5C 262.5,372.833 262.5,375.167 262.5,377.5C 255.167,377.5 247.833,377.5 240.5,377.5C 240.5,375.167 240.5,372.833 240.5,370.5 Z"/></g>
<g><path style="opacity:1" fill="#b0b3c2" d="M 120.5,362.5 C 120.5,364.833 120.5,367.167 120.5,369.5C 124.167,369.5 127.833,369.5 131.5,369.5C 131.5,372.167 131.5,374.833 131.5,377.5C 127.833,377.5 124.167,377.5 120.5,377.5C 120.5,379.833 120.5,382.167 120.5,384.5C 124.702,384.183 128.702,384.517 132.5,385.5C 128.167,385.5 123.833,385.5 119.5,385.5C 119.5,382.5 119.5,379.5 119.5,376.5C 123.167,376.5 126.833,376.5 130.5,376.5C 130.5,374.5 130.5,372.5 130.5,370.5C 126.833,370.5 123.167,370.5 119.5,370.5C 119.194,367.615 119.527,364.948 120.5,362.5 Z"/></g>
<g><path style="opacity:1" fill="#8a90a9" d="M 304.5,376.5 C 304.5,379.167 304.5,381.833 304.5,384.5C 308.833,384.5 313.167,384.5 317.5,384.5C 317.802,387.059 317.468,389.393 316.5,391.5C 316.5,389.5 316.5,387.5 316.5,385.5C 312.167,385.5 307.833,385.5 303.5,385.5C 303.19,382.287 303.523,379.287 304.5,376.5 Z"/></g>
<g><path style="opacity:1" fill="#ffbb3c" d="M 281.5,398.5 C 283.45,403.735 284.117,409.402 283.5,415.5C 284.675,415.281 285.675,415.614 286.5,416.5C 284.955,417.452 283.288,417.785 281.5,417.5C 281.5,411.167 281.5,404.833 281.5,398.5 Z"/></g>
<g><path style="opacity:1" fill="#ffac07" d="M 156.5,402.5 C 158.43,406.373 159.097,410.706 158.5,415.5C 160.604,415.201 162.604,415.534 164.5,416.5C 161.914,417.48 159.247,417.813 156.5,417.5C 156.5,412.5 156.5,407.5 156.5,402.5 Z"/></g>
<g><path style="opacity:1" fill="#ffba42" d="M 224.5,406.5 C 227.833,406.5 231.167,406.5 234.5,406.5C 234.823,410.226 234.489,413.893 233.5,417.5C 232.52,414.914 232.187,412.247 232.5,409.5C 230.833,409.5 229.167,409.5 227.5,409.5C 227.5,412.167 227.5,414.833 227.5,417.5C 226.5,417.5 225.5,417.5 224.5,417.5C 224.5,413.833 224.5,410.167 224.5,406.5 Z"/></g>
<g><path style="opacity:1" fill="#ffb42e" d="M 263.5,406.5 C 265.833,406.5 268.167,406.5 270.5,406.5C 270.5,410.167 270.5,413.833 270.5,417.5C 268.143,417.663 265.81,417.497 263.5,417C 262.065,414.733 262.398,412.733 264.5,411C 265.784,410.316 266.951,410.483 268,411.5C 268.483,410.552 268.649,409.552 268.5,408.5C 266.219,408.923 264.552,408.256 263.5,406.5 Z"/></g>
<g><path style="opacity:1" fill="#ffb635" d="M 315.5,406.5 C 318.5,406.5 321.5,406.5 324.5,406.5C 324.823,410.226 324.489,413.893 323.5,417.5C 322.52,414.914 322.187,412.247 322.5,409.5C 320.833,409.5 319.167,409.5 317.5,409.5C 317.813,412.247 317.48,414.914 316.5,417.5C 315.511,413.893 315.177,410.226 315.5,406.5 Z"/></g>
<g><path style="opacity:1" fill="#ffb736" d="M 175.5,406.5 C 180.811,405.972 183.145,408.306 182.5,413.5C 174.035,413.63 173.701,414.63 181.5,416.5C 176.55,418.691 173.55,417.191 172.5,412C 172.863,409.808 173.863,407.974 175.5,406.5 Z"/></g>
<g><path style="opacity:1" fill="#fff5e3" d="M 175.5,408.5 C 177.665,408.116 179.332,408.783 180.5,410.5C 178.5,411.833 176.5,411.833 174.5,410.5C 174.863,409.817 175.196,409.15 175.5,408.5 Z"/></g>
<g><path style="opacity:1" fill="#ffca6a" d="M 209.5,406.5 C 211.833,406.5 214.167,406.5 216.5,406.5C 216.5,407.5 216.5,408.5 216.5,409.5C 215.167,409.5 213.833,409.5 212.5,409.5C 212.5,412.167 212.5,414.833 212.5,417.5C 211.5,417.5 210.5,417.5 209.5,417.5C 209.5,413.833 209.5,410.167 209.5,406.5 Z"/></g>
<g><path style="opacity:1" fill="#ffb42d" d="M 297.5,406.5 C 305.302,406.787 307.302,410.287 303.5,417C 294.352,417.536 292.352,414.036 297.5,406.5 Z"/></g>
<g><path style="opacity:1" fill="#fff8ec" d="M 298.5,408.5 C 302.976,408.8 304.31,410.967 302.5,415C 296.339,415.878 295.006,413.711 298.5,408.5 Z"/></g>
<g><path style="opacity:1" fill="#ffb631" d="M 336.5,406.5 C 341.682,406.018 344.349,408.351 344.5,413.5C 334.242,412.962 333.909,414.128 343.5,417C 334.43,418.136 332.096,414.636 336.5,406.5 Z"/></g>
<g><path style="opacity:1" fill="#fff3de" d="M 337.5,408.5 C 339.665,408.116 341.332,408.783 342.5,410.5C 340.5,411.833 338.5,411.833 336.5,410.5C 336.863,409.817 337.196,409.15 337.5,408.5 Z"/></g>
<g><path style="opacity:1" fill="#ffc251" d="M 244.5,409.5 C 247.247,409.187 249.914,409.52 252.5,410.5C 251.167,410.833 249.833,411.167 248.5,411.5C 246.667,411.415 245.334,410.748 244.5,409.5 Z"/></g>
<g><path style="opacity:1" fill="#ffba3e" d="M 192.5,406.5 C 194.833,406.5 197.167,406.5 199.5,406.5C 199.5,410.167 199.5,413.833 199.5,417.5C 196.753,417.813 194.086,417.48 191.5,416.5C 190.276,411.559 192.109,409.892 197,411.5C 197.483,410.552 197.649,409.552 197.5,408.5C 195.219,408.923 193.552,408.256 192.5,406.5 Z"/></g>
<g><path style="opacity:1" fill="#fff4df" d="M 193.5,412.5 C 195.346,412.222 196.68,412.889 197.5,414.5C 196.68,416.111 195.346,416.778 193.5,416.5C 193.5,415.167 193.5,413.833 193.5,412.5 Z"/></g>
<g><path style="opacity:1" fill="#fff6e7" d="M 264.5,412.5 C 265.833,412.5 267.167,412.5 268.5,412.5C 268.778,414.346 268.111,415.68 266.5,416.5C 264.889,415.68 264.222,414.346 264.5,412.5 Z"/></g>
</svg>
